<svg width="24" height="24" viewBox="0 0 24 24" fill="none" xmlns="http://www.w3.org/2000/svg">
<rect width="24" height="24" rx="2" fill="#077426"/>
<rect x="11.3" y="19.7" width="2.2" height="3.3" fill="#85BB65"/>
<path d="M14.6609 12.1625C14.9317 12.352 15.1822 12.5212 15.4123 12.6702C15.656 12.8055 15.8658 12.9545 16.0418 13.1169C16.3938 13.4418 16.5698 13.8412 16.5698 14.3151V17.7674C16.5698 18.3766 16.3532 18.8437 15.92 19.1686C15.5545 19.4665 15.0738 19.6154 14.4782 19.6154H8V15.8585H9.46215V18.2345H14.9452V14.2745L9.62462 11.0049C9.15077 10.7342 8.75815 10.4566 8.44677 10.1723C8.14892 9.87446 8 9.47508 8 8.97415V6.41538C8 5.61661 8.18954 5.06831 8.56862 4.77046C8.89354 4.51323 9.45538 4.38461 10.2542 4.38461H16.3871V8.14154H14.9249V5.76554H9.62462V9.01477L14.6609 12.1625Z" fill="#85BB65" stroke="#85BB65"/>
<rect x="11.3" y="1" width="2.2" height="3.3" fill="#85BB65"/>
</svg>
